# xmcd CD database file
#
# Track frame offsets:
#	150
#	11882
#	22837
#	36077
#	47477
#	61507
#	78407
#	93225
#	106202
#	117545
#
# Disc length: 1762 seconds
#
# Revision: 6
# Processed by: cddbd v1.5.2PL0 Copyright (c) Steve Scherf et al.
# Submitted via: CDex 1.70beta2
#
DISCID=6d06e00a
DTITLE=George Jones - Super Hits
DYEAR=1987
DGENRE=Country
TTITLE0=White Lightnin'
TTITLE1=Why Baby Why
TTITLE2=The Window Up Above
TTITLE3=A Picture Of Me Without You
TTITLE4=The Grand Tour
TTITLE5=Bartender's Blues
TTITLE6=He Stopped Loving Her Today
TTITLE7=Tennessee Whiskey
TTITLE8=The One I Loved Back Then
TTITLE9=Who's Gonna Fill Their Shoes
EXTD=YEAR: 1987
EXTT0=
EXTT1=
EXTT2=
EXTT3=
EXTT4=
EXTT5=
EXTT6=
EXTT7=
EXTT8=
EXTT9=
PLAYORDER=
